{"buffers":[{"uri":"scene.compressed.bin","byteLength":30792}],"asset":{"version":"2.0","generator":"gltfpack 0.15","extras":{"author":"mozillareality (https://sketchfab.com/mozillareality)","license":"CC-BY-4.0 (http://creativecommons.org/licenses/by/4.0/)","source":"https://sketchfab.com/models/b69e2a5dd7de4d7a8e091768d54a63e6","title":"Conference Room1"}},"extensionsUsed":["KHR_mesh_quantization","KHR_texture_transform"],"extensionsRequired":["KHR_mesh_quantization"],"bufferViews":[{"buffer":0,"byteOffset":0,"byteLength":5268,"byteStride":4,"target":34962},{"buffer":0,"byteOffset":5268,"byteLength":10536,"byteStride":8,"target":34962},{"buffer":0,"byteOffset":15804,"byteLength":5268,"byteStride":4,"target":34962},{"buffer":0,"byteOffset":21072,"byteLength":5268,"byteStride":4,"target":34962},{"buffer":0,"byteOffset":26340,"byteLength":4452,"target":34963}],"accessors":[{"bufferView":0,"byteOffset":0,"componentType":5120,"count":1317,"type":"VEC3","normalized":true},{"bufferView":1,"byteOffset":0,"componentType":5123,"count":1317,"type":"VEC3","min":[0,0,0],"max":[14442,4062,16383]},{"bufferView":2,"byteOffset":0,"componentType":5120,"count":1317,"type":"VEC4","normalized":true},{"bufferView":3,"byteOffset":0,"componentType":5123,"count":1317,"type":"VEC2"},{"bufferView":4,"byteOffset":0,"componentType":5123,"count":2226,"type":"SCALAR"}],"images":[{"uri":"textures/lambert1_metallicRoughness.png"},{"uri":"textures/lambert1_baseColor.jpeg"},{"uri":"textures/lambert1_normal.png"}],"textures":[{"source":0},{"source":1},{"source":2}],"materials":[{"name":"lambert1","pbrMetallicRoughness":{"baseColorTexture":{"index":1,"texCoord":0,"extensions":{"KHR_texture_transform":{"offset":[0.0060364157,0.00135363732],"scale":[0.000241343732,0.000241788322]}}},"metallicRoughnessTexture":{"index":0,"texCoord":0,"extensions":{"KHR_texture_transform":{"offset":[0.0060364157,0.00135363732],"scale":[0.000241343732,0.000241788322]}}}},"normalTexture":{"index":2,"texCoord":0,"extensions":{"KHR_texture_transform":{"offset":[0.0060364157,0.00135363732],"scale":[0.000241343732,0.000241788322]}}},"occlusionTexture":{"index":0,"texCoord":0,"extensions":{"KHR_texture_transform":{"offset":[0.0060364157,0.00135363732],"scale":[0.000241343732,0.000241788322]}}},"doubleSided":true}],"meshes":[{"primitives":[{"attributes":{"NORMAL":0,"POSITION":1,"TANGENT":2,"TEXCOORD_0":3},"mode":4,"indices":4,"material":0}]}],"nodes":[{"mesh":0,"translation":[-1000,-12.5000706,-614.999878],"scale":[0.110785559,0.110785559,0.110785559]}],"scenes":[{"name":"OSG_Scene","nodes":[0]}],"scene":0}