{"buffers":[{"uri":"scene.compressed.bin","byteLength":71464}],"asset":{"version":"2.0","generator":"gltfpack 0.15","extras":{"author":"yryabchenko (https://sketchfab.com/yryabchenko)","license":"CC-BY-4.0 (http://creativecommons.org/licenses/by/4.0/)","source":"https://sketchfab.com/models/1132fa2850a24917892733566bd68e74","title":"Table"}},"extensionsUsed":["KHR_mesh_quantization","KHR_texture_transform"],"extensionsRequired":["KHR_mesh_quantization"],"bufferViews":[{"buffer":0,"byteOffset":0,"byteLength":10232,"byteStride":4,"target":34962},{"buffer":0,"byteOffset":10232,"byteLength":20464,"byteStride":8,"target":34962},{"buffer":0,"byteOffset":30696,"byteLength":10232,"byteStride":4,"target":34962},{"buffer":0,"byteOffset":40928,"byteLength":10232,"byteStride":4,"target":34962},{"buffer":0,"byteOffset":51160,"byteLength":20304,"target":34963}],"accessors":[{"bufferView":0,"byteOffset":0,"componentType":5120,"count":2558,"type":"VEC3","normalized":true},{"bufferView":1,"byteOffset":0,"componentType":5123,"count":2558,"type":"VEC3","min":[0,0,0],"max":[16383,11913,16383]},{"bufferView":2,"byteOffset":0,"componentType":5120,"count":2558,"type":"VEC4","normalized":true},{"bufferView":3,"byteOffset":0,"componentType":5123,"count":2558,"type":"VEC2"},{"bufferView":4,"byteOffset":0,"componentType":5123,"count":10152,"type":"SCALAR"}],"images":[{"uri":"textures/blinn1_normal.png"},{"uri":"textures/blinn1_baseColor.png"}],"textures":[{"source":0},{"source":1}],"materials":[{"name":"blinn1","pbrMetallicRoughness":{"baseColorTexture":{"index":1,"texCoord":0,"extensions":{"KHR_texture_transform":{"offset":[0.00925618969,0.00581060257],"scale":[0.000239993315,0.000237071654]}}},"metallicFactor":0,"roughnessFactor":0.600000024},"normalTexture":{"index":0,"texCoord":0,"extensions":{"KHR_texture_transform":{"offset":[0.00925618969,0.00581060257],"scale":[0.000239993315,0.000237071654]}}},"doubleSided":true}],"meshes":[{"primitives":[{"attributes":{"NORMAL":0,"POSITION":1,"TANGENT":2,"TEXCOORD_0":3},"mode":4,"indices":4,"material":0}]}],"nodes":[{"mesh":0,"translation":[-2.26728201,-0.0848345608,-2.26728129],"scale":[0.000276784762,0.000276784762,0.000276784762]}],"scenes":[{"name":"OSG_Scene","nodes":[0]}],"scene":0}